mtllib hexagon-mat.mtl
v -0.04548191 0.08238137 -0.01395379
v 0.04700547 0.08234322 0.00775063
v 0.04586337 0.08223355 0.0126172
v -0.04662402 0.0822717 -0.00908722
v 0.09362949 7.164478E-05 0.01683785
v 0.09248739 -3.814697E-05 0.02170442
v 0.04776612 -0.0821619 0.004220635
v 0.04662402 -0.0822717 0.00908722
v -0.04472129 -0.08212388 -0.01748379
v -0.04586339 -0.08223355 -0.01261721
v -0.0913453 0.0001478195 -0.026571
v -0.09248738 3.814697E-05 -0.02170442
vn -0.004620498 0.9997593 0.02144612
vn -0.004620496 0.9997593 0.02144611
vn 0.8408067 0.4995325 0.2085937
vn 0.8408098 0.4995322 0.2085821
vn 0.8454338 -0.5002267 0.1871229
vn 0.8454334 -0.5002266 0.1871245
vn 0.004621713 -0.9997593 -0.02144581
vn 0.004625931 -0.9997588 -0.02146926
vn -0.8408107 -0.4995322 -0.2085784
vn -0.8408102 -0.499532 -0.2085807
vn -0.8454304 0.5002271 -0.1871371
vn -0.8454317 0.5002267 -0.1871322
vn 0.2284212 0.02194178 -0.9733151
vn 0.2284211 0.02194178 -0.9733151
vn 0.2284212 0.02194186 -0.9733151
vn 0.2284212 0.02194178 -0.9733151
vn -0.2284212 -0.02194178 0.9733151
vn -0.2284212 -0.02194173 0.9733151
vn -0.2284212 -0.02194175 0.9733151
vn -0.2284212 -0.02194176 0.9733151
vt 0.4994256 0.4906627
vt 0.4968139 0.4946303
vt 0.4966051 0.4944928
vt 0.4994256 0.4906627
vt 0.4966051 0.4944928
vt 0.4992168 0.4905252
vt 0.590844 0.4907294
vt 0.5860978 0.4909203
vt 0.5860878 0.4906705
vt 0.590844 0.4907289
vt 0.5860878 0.4906699
vt 0.590834 0.4904791
vt 0.5528399 0.5681281
vt 0.5501793 0.5641931
vt 0.5503864 0.5640531
vt 0.5528401 0.568128
vt 0.5503865 0.5640531
vt 0.5530472 0.567988
vt 0.5031861 0.4946304
vt 0.5005744 0.4906628
vt 0.5007833 0.4905254
vt 0.5031841 0.4946316
vt 0.5007812 0.4905265
vt 0.5033929 0.4944941
vt 0.4139021 0.4909196
vt 0.409156 0.4907287
vt 0.409166 0.4904789
vt 0.4139021 0.4909197
vt 0.409166 0.4904791
vt 0.4139122 0.4906699
vt 0.4498197 0.5641924
vt 0.447159 0.5681273
vt 0.4469519 0.5679873
vt 0.44982 0.5641927
vt 0.4469523 0.5679876
vt 0.4496129 0.5640526
vt 0.4054536 0.5431672
vt 0.4079235 0.5391099
vt 0.4126722 0.5392202
vt 0.4054536 0.5431672
vt 0.4126722 0.5392202
vt 0.414951 0.5433879
vt 0.4054536 0.5431672
vt 0.414951 0.5433879
vt 0.4124811 0.5474452
vt 0.4054536 0.5431672
vt 0.4124811 0.5474452
vt 0.4077324 0.5473349
vt 0.5920765 0.5391099
vt 0.5945464 0.5431672
vt 0.5922676 0.5473349
vt 0.5920765 0.5391099
vt 0.5922676 0.5473349
vt 0.5875189 0.5474452
vt 0.5920765 0.5391099
vt 0.5875189 0.5474452
vt 0.585049 0.5433879
vt 0.5920765 0.5391099
vt 0.585049 0.5433879
vt 0.5873278 0.5392202
o group963751589
g mesh963751589
usemtl mat23
f 3/3/1 2/2/1 1/1/1
f 4/6/2 3/5/2 1/4/2
f 6/9/3 5/8/3 2/7/3
f 3/12/4 6/11/4 2/10/4
f 8/15/5 7/14/5 5/13/5
f 6/18/6 8/17/6 5/16/6
f 10/21/7 9/20/7 7/19/7
f 8/24/8 10/23/8 7/22/8
f 12/27/9 11/26/9 9/25/9
f 10/30/10 12/29/10 9/28/10
f 4/33/11 1/32/11 11/31/11
f 12/36/12 4/35/12 11/34/12
f 9/39/13 11/38/13 1/37/13
f 7/42/14 9/41/14 1/40/14
f 5/45/15 7/44/15 1/43/15
f 2/48/16 5/47/16 1/46/16
f 3/51/17 4/50/17 12/49/17
f 6/54/18 3/53/18 12/52/18
f 8/57/19 6/56/19 12/55/19
f 10/60/20 8/59/20 12/58/20
